<svg width="24" height="24" viewBox="0 0 24 24" fill="none" xmlns="http://www.w3.org/2000/svg">
<path d="M10.1339 10.5359L11.7449 9.05988C12.1854 8.65551 12.495 8.12873 12.634 7.54715C12.773 6.96556 12.735 6.35572 12.5249 5.79588L11.8379 3.96138C11.5813 3.27651 11.0731 2.71525 10.4171 2.39196C9.76103 2.06867 9.0064 2.00767 8.30693 2.22138C5.73293 3.00888 3.75443 5.40138 4.36343 8.24238C4.76393 10.1114 5.53043 12.4574 6.98243 14.9534C8.43743 17.4554 10.0994 19.3034 11.5244 20.6024C13.6754 22.5599 16.7504 22.0709 18.7289 20.2259C19.2593 19.7314 19.5811 19.0533 19.6288 18.3297C19.6764 17.6062 19.4463 16.8917 18.9854 16.3319L17.7254 14.8019C17.3454 14.3392 16.8356 14.0008 16.2617 13.8303C15.6878 13.6597 15.0759 13.6648 14.5049 13.8449L12.4229 14.5004C11.8853 13.9455 11.4141 13.3298 11.0189 12.6659C10.6375 11.9944 10.3403 11.2785 10.1339 10.5344V10.5359Z" fill="#6B6B6B"/>
</svg>
